<svg width="135" height="33" viewBox="0 0 135 33" fill="none" xmlns="http://www.w3.org/2000/svg">
<path d="M22.08 5.28V13.44H21.12C21.12 10.592 20.544 8.688 19.392 7.728C18.272 6.736 16.448 6.24 13.92 6.24H9.6V18.816H11.52C13.824 18.816 15.28 18.528 15.888 17.952C16.496 17.376 16.8 16.224 16.8 14.496H17.76V24.096H16.8C16.8 22.304 16.496 21.136 15.888 20.592C15.28 20.048 13.824 19.776 11.52 19.776H9.6V31.2H12.48V32.16H0V31.2H2.4V6.24H0V5.28H22.08Z" fill="black"/>
<path d="M35.0531 31.2H37.4531V32.16H25.4531V31.2H27.8531V0.959999H25.4531V0H35.0531V31.2Z" fill="black"/>
<path d="M64.1081 31.2C63.7881 31.52 63.1801 31.808 62.2841 32.064C61.3881 32.288 60.3481 32.4 59.1641 32.4C56.5401 32.4 54.8921 31.616 54.2201 30.048C52.6201 31.712 50.1721 32.544 46.8761 32.544C45.1161 32.544 43.6601 32.144 42.5081 31.344C41.3881 30.512 40.8281 29.296 40.8281 27.696C40.8281 25.552 41.6601 23.904 43.3241 22.752C44.9881 21.568 47.9001 20.736 52.0601 20.256L53.9801 20.016V17.664C53.9801 14.88 53.7721 13.008 53.3561 12.048C52.9401 11.088 52.1081 10.608 50.8601 10.608C49.6441 10.608 48.8601 10.784 48.5081 11.136C48.1561 11.456 48.0281 11.84 48.1241 12.288C48.2201 12.704 48.3801 13.264 48.6041 13.968C48.8281 14.672 48.9401 15.232 48.9401 15.648C48.9401 16.64 48.5881 17.488 47.8841 18.192C47.2121 18.864 46.3801 19.2 45.3881 19.2C44.4281 19.2 43.5961 18.864 42.8921 18.192C42.1881 17.488 41.8361 16.64 41.8361 15.648C41.8361 14.016 42.6681 12.624 44.3321 11.472C46.0281 10.288 48.5401 9.696 51.8681 9.696C55.2281 9.696 57.6121 10.352 59.0201 11.664C60.4601 12.976 61.1801 15.296 61.1801 18.624V27.264C61.1801 28.96 61.3881 30.032 61.8041 30.48C62.2201 30.896 62.9881 30.976 64.1081 30.72V31.2ZM47.5001 26.736C47.6601 27.952 48.1081 28.896 48.8441 29.568C49.5801 30.208 50.4281 30.528 51.3881 30.528C52.3801 30.528 53.2441 30.048 53.9801 29.088V20.928L52.2521 21.168C50.7801 21.36 49.5801 21.92 48.6521 22.848C47.7561 23.776 47.3721 25.072 47.5001 26.736Z" fill="black"/>
<path d="M107.304 31.2H109.704V32.16H97.7044V31.2H100.104V17.76C100.104 15.488 99.7684 13.872 99.0964 12.912C98.4244 11.952 97.4164 11.472 96.0724 11.472C95.3044 11.472 94.5044 11.696 93.6724 12.144C92.8404 12.592 92.1524 13.216 91.6084 14.016C91.9924 15.168 92.1844 16.768 92.1844 18.816V31.2H94.5844V32.16H82.1044V31.2H84.9844V17.76C84.9844 15.488 84.6484 13.872 83.9764 12.912C83.3044 11.952 82.2964 11.472 80.9524 11.472C79.1284 11.472 77.6724 12.432 76.5844 14.352V31.2H78.9844V32.16H66.9844V31.2H69.3844V11.04H66.9844V10.08H76.5844V12.576C77.1924 11.744 78.1364 11.04 79.4164 10.464C80.7284 9.856 82.1364 9.552 83.6404 9.552C87.4484 9.552 89.9284 10.624 91.0804 12.768C91.9124 11.744 93.0164 10.96 94.3924 10.416C95.7684 9.84 97.2244 9.552 98.7604 9.552C104.456 9.552 107.304 12.64 107.304 18.816V31.2Z" fill="black"/>
<path d="M134.279 22.56H119.783C120.103 28.192 122.294 31.008 126.358 31.008C127.446 31.008 128.678 30.752 130.055 30.24C131.463 29.728 132.486 29.008 133.126 28.08L133.799 28.56C133.095 29.744 131.895 30.72 130.199 31.488C128.503 32.256 126.806 32.64 125.11 32.64C123.446 32.64 121.943 32.48 120.599 32.16C119.255 31.808 117.942 31.232 116.662 30.432C115.382 29.632 114.374 28.432 113.638 26.832C112.934 25.232 112.582 23.296 112.582 21.024C112.582 17.152 113.655 14.288 115.799 12.432C117.942 10.544 120.535 9.6 123.575 9.6C126.646 9.6 129.19 10.624 131.206 12.672C133.255 14.72 134.279 18.016 134.279 22.56ZM119.734 21.6H127.559C127.559 18.656 127.239 16.08 126.599 13.872C125.991 11.664 124.998 10.56 123.622 10.56C122.246 10.56 121.255 11.632 120.646 13.776C120.038 15.888 119.734 18.32 119.734 21.072V21.6Z" fill="black"/>
</svg>
